<svg width="290" height="162" viewBox="0 0 290 162" fill="none" xmlns="http://www.w3.org/2000/svg">
<path d="M17.806 81.3658C15.622 81.3658 13.592 81.0018 11.716 80.2738C9.868 79.5178 8.258 78.4678 6.886 77.1238C5.514 75.7798 4.45 74.2118 3.694 72.4198C2.938 70.5998 2.56 68.6118 2.56 66.4558C2.56 64.2998 2.938 62.3258 3.694 60.5338C4.45 58.7138 5.514 57.1318 6.886 55.7878C8.286 54.4438 9.91 53.4078 11.758 52.6798C13.606 51.9238 15.622 51.5458 17.806 51.5458C19.878 51.5458 21.81 51.8818 23.602 52.5538C25.422 53.2258 26.976 54.2478 28.264 55.6198L26.92 57.0058C25.66 55.7738 24.26 54.8918 22.72 54.3598C21.208 53.7998 19.598 53.5198 17.89 53.5198C16.014 53.5198 14.264 53.8418 12.64 54.4858C11.044 55.1298 9.644 56.0398 8.44 57.2158C7.264 58.3918 6.34 59.7638 5.668 61.3318C5.024 62.8998 4.702 64.6078 4.702 66.4558C4.702 68.3038 5.024 70.0118 5.668 71.5798C6.34 73.1478 7.264 74.5198 8.44 75.6958C9.644 76.8718 11.044 77.7818 12.64 78.4258C14.264 79.0698 16.014 79.3918 17.89 79.3918C19.598 79.3918 21.208 79.1258 22.72 78.5938C24.26 78.0338 25.66 77.1238 26.92 75.8638L28.264 77.2498C26.976 78.6218 25.422 79.6578 23.602 80.3578C21.81 81.0298 19.878 81.3658 17.806 81.3658ZM46.1153 81.1558V76.1578L46.0313 75.4018V67.1698C46.0313 65.1258 45.4713 63.5718 44.3513 62.5078C43.2593 61.4438 41.6493 60.9118 39.5213 60.9118C38.0093 60.9118 36.5953 61.1778 35.2793 61.7098C33.9913 62.2138 32.8853 62.8718 31.9613 63.6838L30.9113 62.1718C32.0033 61.1918 33.3193 60.4358 34.8593 59.9038C36.3993 59.3438 38.0093 59.0638 39.6893 59.0638C42.4053 59.0638 44.4913 59.7498 45.9473 61.1218C47.4033 62.4938 48.1313 64.5378 48.1313 67.2538V81.1558H46.1153ZM38.2193 81.3238C36.5953 81.3238 35.1813 81.0718 33.9773 80.5678C32.8013 80.0358 31.8913 79.2938 31.2473 78.3418C30.6313 77.3898 30.3233 76.2978 30.3233 75.0658C30.3233 73.9458 30.5753 72.9378 31.0793 72.0418C31.6113 71.1178 32.4793 70.3758 33.6833 69.8158C34.8873 69.2278 36.4973 68.9338 38.5133 68.9338H46.5773V70.5718H38.5553C36.2873 70.5718 34.6913 70.9918 33.7673 71.8318C32.8713 72.6718 32.4233 73.7218 32.4233 74.9818C32.4233 76.3818 32.9553 77.5018 34.0193 78.3418C35.0833 79.1818 36.5813 79.6018 38.5133 79.6018C40.3613 79.6018 41.9153 79.1818 43.1753 78.3418C44.4633 77.5018 45.4153 76.2838 46.0313 74.6878L46.6193 76.1158C46.0313 77.7118 45.0233 78.9858 43.5953 79.9378C42.1953 80.8618 40.4033 81.3238 38.2193 81.3238ZM54.6836 81.1558V59.2318H56.6996V65.2378L56.4896 64.5658C57.1056 62.8018 58.1416 61.4438 59.5976 60.4918C61.0536 59.5398 62.8736 59.0638 65.0576 59.0638V61.1218C64.9736 61.1218 64.8896 61.1218 64.8056 61.1218C64.7216 61.0938 64.6376 61.0798 64.5536 61.0798C62.1176 61.0798 60.2136 61.8498 58.8416 63.3898C57.4696 64.9018 56.7836 67.0158 56.7836 69.7318V81.1558H54.6836ZM80.9212 81.1558V76.1578L80.8372 75.4018V67.1698C80.8372 65.1258 80.2772 63.5718 79.1572 62.5078C78.0652 61.4438 76.4552 60.9118 74.3272 60.9118C72.8152 60.9118 71.4012 61.1778 70.0852 61.7098C68.7972 62.2138 67.6912 62.8718 66.7672 63.6838L65.7172 62.1718C66.8092 61.1918 68.1252 60.4358 69.6652 59.9038C71.2052 59.3438 72.8152 59.0638 74.4952 59.0638C77.2112 59.0638 79.2972 59.7498 80.7532 61.1218C82.2092 62.4938 82.9372 64.5378 82.9372 67.2538V81.1558H80.9212ZM73.0252 81.3238C71.4012 81.3238 69.9872 81.0718 68.7832 80.5678C67.6072 80.0358 66.6972 79.2938 66.0532 78.3418C65.4372 77.3898 65.1292 76.2978 65.1292 75.0658C65.1292 73.9458 65.3812 72.9378 65.8852 72.0418C66.4172 71.1178 67.2852 70.3758 68.4892 69.8158C69.6932 69.2278 71.3032 68.9338 73.3192 68.9338H81.3832V70.5718H73.3612C71.0932 70.5718 69.4972 70.9918 68.5732 71.8318C67.6772 72.6718 67.2292 73.7218 67.2292 74.9818C67.2292 76.3818 67.7612 77.5018 68.8252 78.3418C69.8892 79.1818 71.3872 79.6018 73.3192 79.6018C75.1672 79.6018 76.7212 79.1818 77.9812 78.3418C79.2692 77.5018 80.2212 76.2838 80.8372 74.6878L81.4252 76.1158C80.8372 77.7118 79.8292 78.9858 78.4012 79.9378C77.0012 80.8618 75.2092 81.3238 73.0252 81.3238ZM116.79 59.0638C118.554 59.0638 120.08 59.4138 121.368 60.1138C122.684 60.7858 123.706 61.8218 124.433 63.2218C125.162 64.5938 125.526 66.3018 125.526 68.3458V81.1558H123.425V68.5138C123.425 66.0498 122.824 64.1738 121.62 62.8858C120.416 61.5978 118.736 60.9538 116.58 60.9538C114.928 60.9538 113.5 61.3038 112.296 62.0038C111.091 62.7038 110.167 63.6838 109.523 64.9438C108.879 66.2038 108.557 67.7158 108.557 69.4798V81.1558H106.458V68.5138C106.458 66.0498 105.855 64.1738 104.651 62.8858C103.447 61.5978 101.767 60.9538 99.6115 60.9538C97.9595 60.9538 96.5315 61.3038 95.3275 62.0038C94.1235 62.7038 93.1995 63.6838 92.5555 64.9438C91.9115 66.2038 91.5895 67.7158 91.5895 69.4798V81.1558H89.4895V59.2318H91.5055V65.2798L91.2115 64.6078C91.8555 62.8998 92.9335 61.5558 94.4455 60.5758C95.9575 59.5678 97.7775 59.0638 99.9055 59.0638C102.089 59.0638 103.923 59.6238 105.407 60.7438C106.919 61.8358 107.871 63.4738 108.263 65.6578L107.549 65.3638C108.137 63.4878 109.243 61.9758 110.867 60.8278C112.491 59.6518 114.466 59.0638 116.79 59.0638ZM141.001 81.3238C138.789 81.3238 136.829 80.8478 135.121 79.8958C133.441 78.9438 132.111 77.6278 131.131 75.9478C130.179 74.2678 129.703 72.3498 129.703 70.1938C129.703 68.0098 130.151 66.0918 131.047 64.4398C131.971 62.7598 133.231 61.4438 134.827 60.4918C136.423 59.5398 138.215 59.0638 140.203 59.0638C142.191 59.0638 143.969 59.5258 145.537 60.4498C147.133 61.3738 148.379 62.6758 149.275 64.3558C150.199 66.0078 150.661 67.9258 150.661 70.1098C150.661 70.1938 150.647 70.2918 150.619 70.4038C150.619 70.4878 150.619 70.5858 150.619 70.6978H131.257V69.0598H149.485L148.645 69.8578C148.673 68.1498 148.309 66.6238 147.553 65.2798C146.825 63.9078 145.831 62.8438 144.571 62.0878C143.311 61.3038 141.855 60.9118 140.203 60.9118C138.579 60.9118 137.123 61.3038 135.835 62.0878C134.575 62.8438 133.581 63.9078 132.853 65.2798C132.125 66.6238 131.761 68.1638 131.761 69.8998V70.2778C131.761 72.0698 132.153 73.6658 132.937 75.0658C133.749 76.4378 134.855 77.5158 136.255 78.2998C137.655 79.0558 139.251 79.4338 141.043 79.4338C142.443 79.4338 143.745 79.1818 144.949 78.6778C146.181 78.1738 147.217 77.4038 148.057 76.3678L149.275 77.7538C148.323 78.9298 147.119 79.8258 145.663 80.4418C144.235 81.0298 142.681 81.3238 141.001 81.3238ZM155.057 81.1558V49.9918H157.157V81.1558H155.057ZM185.699 81.3658C183.515 81.3658 181.485 81.0018 179.609 80.2738C177.761 79.5178 176.151 78.4678 174.779 77.1238C173.407 75.7798 172.343 74.2118 171.587 72.4198C170.831 70.5998 170.453 68.6118 170.453 66.4558C170.453 64.2998 170.831 62.3258 171.587 60.5338C172.343 58.7138 173.407 57.1318 174.779 55.7878C176.179 54.4438 177.803 53.4078 179.651 52.6798C181.499 51.9238 183.515 51.5458 185.699 51.5458C187.771 51.5458 189.703 51.8818 191.495 52.5538C193.315 53.2258 194.869 54.2478 196.157 55.6198L194.813 57.0058C193.553 55.7738 192.153 54.8918 190.613 54.3598C189.101 53.7998 187.491 53.5198 185.783 53.5198C183.907 53.5198 182.157 53.8418 180.533 54.4858C178.937 55.1298 177.537 56.0398 176.333 57.2158C175.157 58.3918 174.233 59.7638 173.561 61.3318C172.917 62.8998 172.595 64.6078 172.595 66.4558C172.595 68.3038 172.917 70.0118 173.561 71.5798C174.233 73.1478 175.157 74.5198 176.333 75.6958C177.537 76.8718 178.937 77.7818 180.533 78.4258C182.157 79.0698 183.907 79.3918 185.783 79.3918C187.491 79.3918 189.101 79.1258 190.613 78.5938C192.153 78.0338 193.553 77.1238 194.813 75.8638L196.157 77.2498C194.869 78.6218 193.315 79.6578 191.495 80.3578C189.703 81.0298 187.771 81.3658 185.699 81.3658ZM200.56 81.1558V49.9918H202.66V81.1558H200.56ZM218.315 81.3238C216.439 81.3238 214.815 80.9878 213.443 80.3158C212.071 79.6158 211.007 78.5798 210.251 77.2078C209.523 75.8078 209.159 74.0858 209.159 72.0418V59.2318H211.259V71.8738C211.259 74.3378 211.889 76.2138 213.149 77.5018C214.409 78.7898 216.187 79.4338 218.483 79.4338C220.135 79.4338 221.563 79.0838 222.767 78.3838C223.971 77.6838 224.895 76.7038 225.539 75.4438C226.183 74.1558 226.505 72.6438 226.505 70.9078V59.2318H228.605V81.1558H226.589V75.0658L226.883 75.7798C226.239 77.4878 225.161 78.8458 223.649 79.8538C222.165 80.8338 220.387 81.3238 218.315 81.3238ZM246.411 81.3238C244.479 81.3238 242.729 80.8758 241.161 79.9798C239.621 79.0838 238.389 77.7958 237.465 76.1158C236.569 74.4358 236.121 72.4618 236.121 70.1938C236.121 67.8698 236.569 65.8818 237.465 64.2298C238.389 62.5778 239.621 61.3038 241.161 60.4078C242.729 59.5118 244.479 59.0638 246.411 59.0638C248.483 59.0638 250.331 59.5398 251.955 60.4918C253.607 61.4158 254.895 62.7178 255.819 64.3978C256.771 66.0498 257.247 67.9818 257.247 70.1938C257.247 72.3778 256.771 74.3098 255.819 75.9898C254.895 77.6698 253.607 78.9858 251.955 79.9378C250.331 80.8618 248.483 81.3238 246.411 81.3238ZM235.407 81.1558V49.9918H237.507V66.3298L237.087 70.1518L237.423 73.9738V81.1558H235.407ZM246.285 79.4338C247.965 79.4338 249.477 79.0558 250.821 78.2998C252.165 77.5158 253.215 76.4238 253.971 75.0238C254.755 73.6238 255.147 72.0138 255.147 70.1938C255.147 68.3458 254.755 66.7358 253.971 65.3638C253.215 63.9638 252.165 62.8858 250.821 62.1298C249.477 61.3458 247.965 60.9538 246.285 60.9538C244.605 60.9538 243.093 61.3458 241.749 62.1298C240.433 62.8858 239.383 63.9638 238.599 65.3638C237.843 66.7358 237.465 68.3458 237.465 70.1938C237.465 72.0138 237.843 73.6238 238.599 75.0238C239.383 76.4238 240.433 77.5158 241.749 78.2998C243.093 79.0558 244.605 79.4338 246.285 79.4338Z" fill="#3C3C3C"/>
<path d="M2.91 110.156V96.1558H9.27C10.79 96.1558 12.13 96.4491 13.29 97.0358C14.45 97.6091 15.3567 98.4158 16.01 99.4558C16.6633 100.496 16.99 101.729 16.99 103.156C16.99 104.569 16.6633 105.802 16.01 106.856C15.3567 107.896 14.45 108.709 13.29 109.296C12.13 109.869 10.79 110.156 9.27 110.156H2.91ZM6.15 107.496H9.11C10.0433 107.496 10.85 107.322 11.53 106.976C12.2233 106.616 12.7567 106.109 13.13 105.456C13.5167 104.802 13.71 104.036 13.71 103.156C13.71 102.262 13.5167 101.496 13.13 100.856C12.7567 100.202 12.2233 99.7024 11.53 99.3558C10.85 98.9958 10.0433 98.8158 9.11 98.8158H6.15V107.496ZM25.8134 110.156V108.056L25.6134 107.596V103.836C25.6134 103.169 25.4068 102.649 24.9934 102.276C24.5934 101.902 23.9734 101.716 23.1334 101.716C22.5601 101.716 21.9934 101.809 21.4334 101.996C20.8868 102.169 20.4201 102.409 20.0334 102.716L18.9134 100.536C19.5001 100.122 20.2068 99.8024 21.0334 99.5758C21.8601 99.3491 22.7001 99.2358 23.5534 99.2358C25.1934 99.2358 26.4668 99.6224 27.3734 100.396C28.2801 101.169 28.7334 102.376 28.7334 104.016V110.156H25.8134ZM22.5334 110.316C21.6934 110.316 20.9734 110.176 20.3734 109.896C19.7734 109.602 19.3134 109.209 18.9934 108.716C18.6734 108.222 18.5134 107.669 18.5134 107.056C18.5134 106.416 18.6668 105.856 18.9734 105.376C19.2934 104.896 19.7934 104.522 20.4734 104.256C21.1534 103.976 22.0401 103.836 23.1334 103.836H25.9934V105.656H23.4734C22.7401 105.656 22.2334 105.776 21.9534 106.016C21.6868 106.256 21.5534 106.556 21.5534 106.916C21.5534 107.316 21.7068 107.636 22.0134 107.876C22.3334 108.102 22.7668 108.216 23.3134 108.216C23.8334 108.216 24.3001 108.096 24.7134 107.856C25.1268 107.602 25.4268 107.236 25.6134 106.756L26.0934 108.196C25.8668 108.889 25.4534 109.416 24.8534 109.776C24.2534 110.136 23.4801 110.316 22.5334 110.316ZM35.9572 110.316C34.6905 110.316 33.7039 109.996 32.9972 109.356C32.2905 108.702 31.9372 107.736 31.9372 106.456V97.0158H35.0572V106.416C35.0572 106.869 35.1772 107.222 35.4172 107.476C35.6572 107.716 35.9839 107.836 36.3972 107.836C36.8905 107.836 37.3105 107.702 37.6572 107.436L38.4972 109.636C38.1772 109.862 37.7905 110.036 37.3372 110.156C36.8972 110.262 36.4372 110.316 35.9572 110.316ZM30.2772 102.036V99.6358H37.7372V102.036H30.2772ZM40.2486 110.156V99.3958H43.3686V110.156H40.2486ZM41.8086 97.8958C41.2353 97.8958 40.7686 97.7291 40.4086 97.3958C40.0486 97.0624 39.8686 96.6491 39.8686 96.1558C39.8686 95.6624 40.0486 95.2491 40.4086 94.9158C40.7686 94.5824 41.2353 94.4158 41.8086 94.4158C42.3819 94.4158 42.8486 94.5758 43.2086 94.8958C43.5686 95.2024 43.7486 95.6024 43.7486 96.0958C43.7486 96.6158 43.5686 97.0491 43.2086 97.3958C42.8619 97.7291 42.3953 97.8958 41.8086 97.8958ZM52.8042 99.2358C53.6576 99.2358 54.4176 99.4091 55.0842 99.7558C55.7642 100.089 56.2976 100.609 56.6842 101.316C57.0709 102.009 57.2642 102.902 57.2642 103.996V110.156H54.1442V104.476C54.1442 103.609 53.9509 102.969 53.5642 102.556C53.1909 102.142 52.6576 101.936 51.9642 101.936C51.4709 101.936 51.0242 102.042 50.6242 102.256C50.2376 102.456 49.9309 102.769 49.7042 103.196C49.4909 103.622 49.3842 104.169 49.3842 104.836V110.156H46.2642V99.3958H49.2442V102.376L48.6842 101.476C49.0709 100.756 49.6242 100.202 50.3442 99.8158C51.0642 99.4291 51.8842 99.2358 52.8042 99.2358ZM65.2305 114.196C64.2171 114.196 63.2371 114.069 62.2905 113.816C61.3571 113.576 60.5771 113.209 59.9505 112.716L61.1905 110.476C61.6438 110.849 62.2171 111.142 62.9105 111.356C63.6171 111.582 64.3105 111.696 64.9905 111.696C66.0971 111.696 66.8971 111.449 67.3905 110.956C67.8971 110.462 68.1505 109.729 68.1505 108.756V107.136L68.3505 104.436L68.3105 101.716V99.3958H71.2705V108.356C71.2705 110.356 70.7505 111.829 69.7105 112.776C68.6705 113.722 67.1771 114.196 65.2305 114.196ZM64.7505 109.636C63.7505 109.636 62.8438 109.422 62.0305 108.996C61.2305 108.556 60.5838 107.949 60.0905 107.176C59.6105 106.389 59.3705 105.476 59.3705 104.436C59.3705 103.382 59.6105 102.469 60.0905 101.696C60.5838 100.909 61.2305 100.302 62.0305 99.8758C62.8438 99.4491 63.7505 99.2358 64.7505 99.2358C65.6571 99.2358 66.4571 99.4224 67.1505 99.7958C67.8438 100.156 68.3838 100.722 68.7705 101.496C69.1571 102.256 69.3505 103.236 69.3505 104.436C69.3505 105.622 69.1571 106.602 68.7705 107.376C68.3838 108.136 67.8438 108.702 67.1505 109.076C66.4571 109.449 65.6571 109.636 64.7505 109.636ZM65.3705 107.076C65.9171 107.076 66.4038 106.969 66.8305 106.756C67.2571 106.529 67.5905 106.216 67.8305 105.816C68.0705 105.416 68.1905 104.956 68.1905 104.436C68.1905 103.902 68.0705 103.442 67.8305 103.056C67.5905 102.656 67.2571 102.349 66.8305 102.136C66.4038 101.909 65.9171 101.796 65.3705 101.796C64.8238 101.796 64.3371 101.909 63.9105 102.136C63.4838 102.349 63.1438 102.656 62.8905 103.056C62.6505 103.442 62.5305 103.902 62.5305 104.436C62.5305 104.956 62.6505 105.416 62.8905 105.816C63.1438 106.216 63.4838 106.529 63.9105 106.756C64.3371 106.969 64.8238 107.076 65.3705 107.076ZM93.6184 99.2358C94.4718 99.2358 95.2251 99.4091 95.8784 99.7558C96.5451 100.089 97.0651 100.609 97.4384 101.316C97.8251 102.009 98.0184 102.902 98.0184 103.996V110.156H94.8984V104.476C94.8984 103.609 94.7184 102.969 94.3584 102.556C93.9984 102.142 93.4918 101.936 92.8384 101.936C92.3851 101.936 91.9784 102.042 91.6184 102.256C91.2584 102.456 90.9784 102.762 90.7784 103.176C90.5784 103.589 90.4784 104.116 90.4784 104.756V110.156H87.3584V104.476C87.3584 103.609 87.1784 102.969 86.8184 102.556C86.4718 102.142 85.9718 101.936 85.3184 101.936C84.8651 101.936 84.4584 102.042 84.0984 102.256C83.7384 102.456 83.4584 102.762 83.2584 103.176C83.0584 103.589 82.9584 104.116 82.9584 104.756V110.156H79.8384V99.3958H82.8184V102.336L82.2584 101.476C82.6318 100.742 83.1584 100.189 83.8384 99.8158C84.5318 99.4291 85.3184 99.2358 86.1984 99.2358C87.1851 99.2358 88.0451 99.4891 88.7784 99.9958C89.5251 100.489 90.0184 101.249 90.2584 102.276L89.1584 101.976C89.5184 101.136 90.0918 100.469 90.8784 99.9758C91.6784 99.4824 92.5918 99.2358 93.6184 99.2358ZM106.233 110.316C105.006 110.316 103.926 110.076 102.993 109.596C102.073 109.116 101.36 108.462 100.853 107.636C100.346 106.796 100.093 105.842 100.093 104.776C100.093 103.696 100.34 102.742 100.833 101.916C101.34 101.076 102.026 100.422 102.893 99.9558C103.76 99.4758 104.74 99.2358 105.833 99.2358C106.886 99.2358 107.833 99.4624 108.673 99.9158C109.526 100.356 110.2 100.996 110.693 101.836C111.186 102.662 111.433 103.656 111.433 104.816C111.433 104.936 111.426 105.076 111.413 105.236C111.4 105.382 111.386 105.522 111.373 105.656H102.633V103.836H109.733L108.533 104.376C108.533 103.816 108.42 103.329 108.193 102.916C107.966 102.502 107.653 102.182 107.253 101.956C106.853 101.716 106.386 101.596 105.853 101.596C105.32 101.596 104.846 101.716 104.433 101.956C104.033 102.182 103.72 102.509 103.493 102.936C103.266 103.349 103.153 103.842 103.153 104.416V104.896C103.153 105.482 103.28 106.002 103.533 106.456C103.8 106.896 104.166 107.236 104.633 107.476C105.113 107.702 105.673 107.816 106.313 107.816C106.886 107.816 107.386 107.729 107.813 107.556C108.253 107.382 108.653 107.122 109.013 106.776L110.673 108.576C110.18 109.136 109.56 109.569 108.813 109.876C108.066 110.169 107.206 110.316 106.233 110.316ZM118.85 110.316C117.624 110.316 116.544 110.076 115.61 109.596C114.69 109.116 113.977 108.462 113.47 107.636C112.964 106.796 112.71 105.842 112.71 104.776C112.71 103.696 112.957 102.742 113.45 101.916C113.957 101.076 114.644 100.422 115.51 99.9558C116.377 99.4758 117.357 99.2358 118.45 99.2358C119.504 99.2358 120.45 99.4624 121.29 99.9158C122.144 100.356 122.817 100.996 123.31 101.836C123.804 102.662 124.05 103.656 124.05 104.816C124.05 104.936 124.044 105.076 124.03 105.236C124.017 105.382 124.004 105.522 123.99 105.656H115.25V103.836H122.35L121.15 104.376C121.15 103.816 121.037 103.329 120.81 102.916C120.584 102.502 120.27 102.182 119.87 101.956C119.47 101.716 119.004 101.596 118.47 101.596C117.937 101.596 117.464 101.716 117.05 101.956C116.65 102.182 116.337 102.509 116.11 102.936C115.884 103.349 115.77 103.842 115.77 104.416V104.896C115.77 105.482 115.897 106.002 116.15 106.456C116.417 106.896 116.784 107.236 117.25 107.476C117.73 107.702 118.29 107.816 118.93 107.816C119.504 107.816 120.004 107.729 120.43 107.556C120.87 107.382 121.27 107.122 121.63 106.776L123.29 108.576C122.797 109.136 122.177 109.569 121.43 109.876C120.684 110.169 119.824 110.316 118.85 110.316ZM130.528 110.316C129.261 110.316 128.274 109.996 127.568 109.356C126.861 108.702 126.508 107.736 126.508 106.456V97.0158H129.628V106.416C129.628 106.869 129.748 107.222 129.988 107.476C130.228 107.716 130.554 107.836 130.968 107.836C131.461 107.836 131.881 107.702 132.228 107.436L133.068 109.636C132.748 109.862 132.361 110.036 131.908 110.156C131.468 110.262 131.008 110.316 130.528 110.316ZM124.848 102.036V99.6358H132.308V102.036H124.848ZM138.439 110.316C137.519 110.316 136.632 110.209 135.779 109.996C134.939 109.769 134.272 109.489 133.779 109.156L134.819 106.916C135.312 107.222 135.892 107.476 136.559 107.676C137.239 107.862 137.906 107.956 138.559 107.956C139.279 107.956 139.786 107.869 140.079 107.696C140.386 107.522 140.539 107.282 140.539 106.976C140.539 106.722 140.419 106.536 140.179 106.416C139.952 106.282 139.646 106.182 139.259 106.116C138.872 106.049 138.446 105.982 137.979 105.916C137.526 105.849 137.066 105.762 136.599 105.656C136.132 105.536 135.706 105.362 135.319 105.136C134.932 104.909 134.619 104.602 134.379 104.216C134.152 103.829 134.039 103.329 134.039 102.716C134.039 102.036 134.232 101.436 134.619 100.916C135.019 100.396 135.592 99.9891 136.339 99.6958C137.086 99.3891 137.979 99.2358 139.019 99.2358C139.752 99.2358 140.499 99.3158 141.259 99.4758C142.019 99.6358 142.652 99.8691 143.159 100.176L142.119 102.396C141.599 102.089 141.072 101.882 140.539 101.776C140.019 101.656 139.512 101.596 139.019 101.596C138.326 101.596 137.819 101.689 137.499 101.876C137.179 102.062 137.019 102.302 137.019 102.596C137.019 102.862 137.132 103.062 137.359 103.196C137.599 103.329 137.912 103.436 138.299 103.516C138.686 103.596 139.106 103.669 139.559 103.736C140.026 103.789 140.492 103.876 140.959 103.996C141.426 104.116 141.846 104.289 142.219 104.516C142.606 104.729 142.919 105.029 143.159 105.416C143.399 105.789 143.519 106.282 143.519 106.896C143.519 107.562 143.319 108.156 142.919 108.676C142.519 109.182 141.939 109.582 141.179 109.876C140.432 110.169 139.519 110.316 138.439 110.316ZM156.308 110.316C155.148 110.316 154.115 110.082 153.208 109.616C152.301 109.136 151.588 108.476 151.068 107.636C150.561 106.796 150.308 105.842 150.308 104.776C150.308 103.696 150.561 102.742 151.068 101.916C151.588 101.076 152.301 100.422 153.208 99.9558C154.115 99.4758 155.148 99.2358 156.308 99.2358C157.441 99.2358 158.428 99.4758 159.268 99.9558C160.108 100.422 160.728 101.096 161.128 101.976L158.708 103.276C158.428 102.769 158.075 102.396 157.648 102.156C157.235 101.916 156.781 101.796 156.288 101.796C155.755 101.796 155.275 101.916 154.848 102.156C154.421 102.396 154.081 102.736 153.828 103.176C153.588 103.616 153.468 104.149 153.468 104.776C153.468 105.402 153.588 105.936 153.828 106.376C154.081 106.816 154.421 107.156 154.848 107.396C155.275 107.636 155.755 107.756 156.288 107.756C156.781 107.756 157.235 107.642 157.648 107.416C158.075 107.176 158.428 106.796 158.708 106.276L161.128 107.596C160.728 108.462 160.108 109.136 159.268 109.616C158.428 110.082 157.441 110.316 156.308 110.316ZM167.908 110.316C166.761 110.316 165.741 110.076 164.848 109.596C163.968 109.116 163.268 108.462 162.748 107.636C162.241 106.796 161.988 105.842 161.988 104.776C161.988 103.696 162.241 102.742 162.748 101.916C163.268 101.076 163.968 100.422 164.848 99.9558C165.741 99.4758 166.761 99.2358 167.908 99.2358C169.041 99.2358 170.054 99.4758 170.948 99.9558C171.841 100.422 172.541 101.069 173.048 101.896C173.554 102.722 173.808 103.682 173.808 104.776C173.808 105.842 173.554 106.796 173.048 107.636C172.541 108.462 171.841 109.116 170.948 109.596C170.054 110.076 169.041 110.316 167.908 110.316ZM167.908 107.756C168.428 107.756 168.894 107.636 169.308 107.396C169.721 107.156 170.048 106.816 170.288 106.376C170.528 105.922 170.648 105.389 170.648 104.776C170.648 104.149 170.528 103.616 170.288 103.176C170.048 102.736 169.721 102.396 169.308 102.156C168.894 101.916 168.428 101.796 167.908 101.796C167.388 101.796 166.921 101.916 166.508 102.156C166.094 102.396 165.761 102.736 165.508 103.176C165.268 103.616 165.148 104.149 165.148 104.776C165.148 105.389 165.268 105.922 165.508 106.376C165.761 106.816 166.094 107.156 166.508 107.396C166.921 107.636 167.388 107.756 167.908 107.756ZM189.673 99.2358C190.526 99.2358 191.28 99.4091 191.933 99.7558C192.6 100.089 193.12 100.609 193.493 101.316C193.88 102.009 194.073 102.902 194.073 103.996V110.156H190.953V104.476C190.953 103.609 190.773 102.969 190.413 102.556C190.053 102.142 189.546 101.936 188.893 101.936C188.44 101.936 188.033 102.042 187.673 102.256C187.313 102.456 187.033 102.762 186.833 103.176C186.633 103.589 186.533 104.116 186.533 104.756V110.156H183.413V104.476C183.413 103.609 183.233 102.969 182.873 102.556C182.526 102.142 182.026 101.936 181.373 101.936C180.92 101.936 180.513 102.042 180.153 102.256C179.793 102.456 179.513 102.762 179.313 103.176C179.113 103.589 179.013 104.116 179.013 104.756V110.156H175.893V99.3958H178.873V102.336L178.313 101.476C178.686 100.742 179.213 100.189 179.893 99.8158C180.586 99.4291 181.373 99.2358 182.253 99.2358C183.24 99.2358 184.1 99.4891 184.833 99.9958C185.58 100.489 186.073 101.249 186.313 102.276L185.213 101.976C185.573 101.136 186.146 100.469 186.933 99.9758C187.733 99.4824 188.646 99.2358 189.673 99.2358ZM202.288 110.316C201.061 110.316 199.981 110.076 199.048 109.596C198.128 109.116 197.414 108.462 196.908 107.636C196.401 106.796 196.148 105.842 196.148 104.776C196.148 103.696 196.394 102.742 196.888 101.916C197.394 101.076 198.081 100.422 198.948 99.9558C199.814 99.4758 200.794 99.2358 201.888 99.2358C202.941 99.2358 203.888 99.4624 204.728 99.9158C205.581 100.356 206.254 100.996 206.748 101.836C207.241 102.662 207.488 103.656 207.488 104.816C207.488 104.936 207.481 105.076 207.468 105.236C207.454 105.382 207.441 105.522 207.428 105.656H198.688V103.836H205.788L204.588 104.376C204.588 103.816 204.474 103.329 204.248 102.916C204.021 102.502 203.708 102.182 203.308 101.956C202.908 101.716 202.441 101.596 201.908 101.596C201.374 101.596 200.901 101.716 200.488 101.956C200.088 102.182 199.774 102.509 199.548 102.936C199.321 103.349 199.208 103.842 199.208 104.416V104.896C199.208 105.482 199.334 106.002 199.588 106.456C199.854 106.896 200.221 107.236 200.688 107.476C201.168 107.702 201.728 107.816 202.368 107.816C202.941 107.816 203.441 107.729 203.868 107.556C204.308 107.382 204.708 107.122 205.068 106.776L206.728 108.576C206.234 109.136 205.614 109.569 204.868 109.876C204.121 110.169 203.261 110.316 202.288 110.316ZM214.185 110.316C213.172 110.316 212.258 110.089 211.445 109.636C210.632 109.169 209.985 108.522 209.505 107.696C209.038 106.869 208.805 105.896 208.805 104.776C208.805 103.642 209.038 102.662 209.505 101.836C209.985 101.009 210.632 100.369 211.445 99.9158C212.258 99.4624 213.172 99.2358 214.185 99.2358C215.092 99.2358 215.885 99.4358 216.565 99.8358C217.245 100.236 217.772 100.842 218.145 101.656C218.518 102.469 218.705 103.509 218.705 104.776C218.705 106.029 218.525 107.069 218.165 107.896C217.805 108.709 217.285 109.316 216.605 109.716C215.938 110.116 215.132 110.316 214.185 110.316ZM214.725 107.756C215.232 107.756 215.692 107.636 216.105 107.396C216.518 107.156 216.845 106.816 217.085 106.376C217.338 105.922 217.465 105.389 217.465 104.776C217.465 104.149 217.338 103.616 217.085 103.176C216.845 102.736 216.518 102.396 216.105 102.156C215.692 101.916 215.232 101.796 214.725 101.796C214.205 101.796 213.738 101.916 213.325 102.156C212.912 102.396 212.578 102.736 212.325 103.176C212.085 103.616 211.965 104.149 211.965 104.776C211.965 105.389 212.085 105.922 212.325 106.376C212.578 106.816 212.912 107.156 213.325 107.396C213.738 107.636 214.205 107.756 214.725 107.756ZM217.545 110.156V107.956L217.605 104.756L217.405 101.576V95.3158H220.525V110.156H217.545ZM224.773 114.196C224.213 114.196 223.659 114.109 223.113 113.936C222.566 113.762 222.119 113.522 221.773 113.216L222.913 110.996C223.153 111.209 223.426 111.376 223.733 111.496C224.053 111.616 224.366 111.676 224.673 111.676C225.113 111.676 225.459 111.569 225.713 111.356C225.979 111.156 226.219 110.816 226.433 110.336L226.993 109.016L227.233 108.676L231.093 99.3958H234.093L229.233 110.816C228.886 111.682 228.486 112.362 228.033 112.856C227.593 113.349 227.099 113.696 226.553 113.896C226.019 114.096 225.426 114.196 224.773 114.196ZM226.613 110.576L221.813 99.3958H225.033L228.753 108.396L226.613 110.576Z" fill="#FF9452"/>
<path d="M153.233 25.1386C164.281 14.0903 178.358 6.56623 193.682 3.518C209.007 0.469766 224.891 2.03423 239.326 8.01355C253.762 13.9929 266.1 24.1185 274.78 37.11C283.461 50.1015 288.094 65.3753 288.094 81C288.094 96.6248 283.461 111.899 274.78 124.89C266.1 137.882 253.762 148.007 239.326 153.987C224.891 159.966 209.007 161.53 193.682 158.482C178.358 155.434 164.281 147.91 153.233 136.861" stroke="#3C3C3C" stroke-width="3"/>
</svg>
